<svg width="16" height="20" viewBox="0 0 16 20" fill="none" xmlns="http://www.w3.org/2000/svg">
<path d="M15.4455 12.6189L9.07991 18.9845C8.51288 19.5515 7.60156 19.5515 7.03453 18.9845C6.4675 18.4175 6.4675 17.5062 7.03453 16.9391L13.4001 10.5735C13.9672 10.0065 14.8785 10.0065 15.4455 10.5735C16.0125 11.1406 16.0125 12.0519 15.4455 12.6189Z" fill="#252525"/>
<path d="M2.7211 10.5735L9.08674 16.9391C9.65377 17.5062 9.65377 18.4175 9.08674 18.9845C8.51971 19.5515 7.60839 19.5515 7.04136 18.9845L0.675762 12.6189C0.108731 12.0519 0.108731 11.1406 0.675762 10.5735C1.24279 10.0065 2.15407 10.0065 2.7211 10.5735Z" fill="#252525"/>
<path d="M9.50527 2.18958V15.4608C9.50527 16.2574 8.85722 16.9054 8.06068 16.9054C7.26413 16.9054 6.61609 16.2574 6.61609 15.4608V2.18958C6.61609 1.39304 7.26413 0.745001 8.06068 0.745001C8.85722 0.745001 9.50527 1.39304 9.50527 2.18958Z" fill="#252525"/>
</svg>
