<svg width="40" height="28" viewBox="0 0 40 28" fill="none" xmlns="http://www.w3.org/2000/svg">
<path d="M35.7264 5.83013H21.9055C21.6517 5.82901 21.4088 5.72715 21.2301 5.54695C21.0514 5.36676 20.9516 5.12297 20.9526 4.86919V3.77821C20.9526 0.944805 17.8584 -0.780238 15.4779 0.726192L3.31271 8.4245C-0.479389 10.8241 -0.491562 16.3907 3.28997 18.8071L15.8302 26.8207C18.0513 28.2401 20.9522 26.6312 20.9522 23.98V21.8509H35.7264C36.7417 21.8467 37.7138 21.4395 38.4288 20.7186C39.1438 19.9978 39.5432 19.0224 39.5391 18.0071V9.67388C39.5432 8.65858 39.1438 7.68323 38.4288 6.96239C37.7138 6.24155 36.7417 5.83427 35.7264 5.83013Z" fill="#FFC107"/>
<path d="M3.31247 8.4248C1.96379 9.27796 1.47067 10.768 1.45217 12.2125C1.43023 13.9472 2.19625 15.3444 3.57776 16.2832C6.58286 18.3252 15.8303 24.0187 15.8303 24.0187C18.0514 25.4381 20.9523 23.8293 20.9523 21.178V20.3246C20.9513 20.0708 21.0511 19.827 21.2298 19.6468C21.4085 19.4666 21.6515 19.3647 21.9052 19.3636H35.7264C36.7417 19.3595 37.7138 18.9522 38.4288 18.2314C39.1438 17.5105 39.5432 16.5352 39.5391 15.5199V18.0074C39.5432 19.0227 39.1438 19.9981 38.4288 20.7189C37.7138 21.4398 36.7417 21.8471 35.7264 21.8512H20.952V23.9803C20.952 26.6315 18.0511 28.2405 15.83 26.821L3.28972 18.8074C-0.491966 16.391 -0.479633 10.8244 3.31247 8.4248Z" fill="#FFA000"/>
</svg>
