<svg width="69" height="21" viewBox="0 0 69 21" fill="none" xmlns="http://www.w3.org/2000/svg">
<path d="M53.2499 20.3086L68.039 11.7656C68.2494 11.6282 68.4222 11.4405 68.5418 11.2195C68.6614 10.9986 68.724 10.7513 68.724 10.5C68.724 10.2487 68.6614 10.0014 68.5418 9.78044C68.4222 9.55946 68.2494 9.37178 68.039 9.23436L53.2499 0.691391C52.9618 0.535048 52.6297 0.479065 52.3062 0.532267C51.9827 0.585469 51.6861 0.74483 51.4632 0.985227C51.2402 1.22562 51.1036 1.53338 51.0749 1.85998C51.0462 2.18658 51.1271 2.51345 51.3046 2.78905L55.5937 9.03514L1.68745 9.03514C1.29894 9.03514 0.926353 9.18947 0.651641 9.46418C0.37693 9.73889 0.222602 10.1115 0.222602 10.5C0.222602 10.8885 0.37693 11.2611 0.651641 11.5358C0.926353 11.8105 1.29894 11.9648 1.68745 11.9648L55.5937 11.9648L51.3046 18.2109C51.127 18.4865 51.0462 18.8134 51.0749 19.14C51.1036 19.4666 51.2402 19.7743 51.4632 20.0147C51.6861 20.2551 51.9827 20.4145 52.3062 20.4677C52.6297 20.5209 52.9618 20.4649 53.2499 20.3086Z" fill="#28359C"/>
</svg>
